<?xml version="1.0" encoding="UTF-8"?>
<svg xmlns="http://www.w3.org/2000/svg" width="170" height="52" fill="none" viewBox="0 0 170 52"><g clip-path="url(#a)"><path fill="#333" d="M112.858 30.555h.973v-2.832h1.871c.496 0 .948-.081 1.356-.238a3.06 3.06 0 0 0 1.049-.666c.288-.282.514-.615.678-.998.163-.383.238-.797.238-1.237 0-.44-.081-.854-.238-1.236a2.95 2.95 0 0 0-.678-.992 3.046 3.046 0 0 0-1.049-.66 3.75 3.75 0 0 0-1.356-.238h-2.844v9.103-.006Zm2.781-8.206c.377 0 .71.057 1.005.17.295.113.546.27.753.47.207.202.364.44.471.71.107.276.163.571.163.885 0 .314-.056.61-.163.886a2.01 2.01 0 0 1-.471.709c-.207.2-.452.358-.753.47-.295.114-.628.17-1.005.17h-1.808v-4.47h1.808Zm6.586 8.206h5.041v-.936h-4.068v-8.167h-.973v9.103Zm7.985 0h1.024l.872-2.304h4.15l.885 2.304h1.011l-3.453-9.103h-1.048l-3.441 9.103Zm3.962-7.797 1.733 4.57h-3.46l1.721-4.57h.006Zm10.861 7.696a3 3 0 0 0 .923-.577 2.68 2.68 0 0 0 .596-.835c.138-.314.213-.64.213-.98 0-.414-.075-.766-.226-1.048a2.261 2.261 0 0 0-.596-.716 3.607 3.607 0 0 0-.829-.49 16.735 16.735 0 0 0-.935-.364 16.714 16.714 0 0 1-.81-.295 3.213 3.213 0 0 1-.691-.339 1.637 1.637 0 0 1-.483-.464 1.187 1.187 0 0 1-.182-.666c0-.213.044-.408.138-.59a1.62 1.62 0 0 1 .377-.477 2.01 2.01 0 0 1 .571-.32c.22-.075.458-.113.716-.113.464 0 .866.088 1.205.27.339.176.622.452.854.816l.772-.571a3.91 3.91 0 0 0-.54-.578 3.314 3.314 0 0 0-.634-.433 3.247 3.247 0 0 0-.753-.27 3.969 3.969 0 0 0-.892-.094 3.38 3.38 0 0 0-1.111.182c-.339.12-.634.289-.885.502a2.303 2.303 0 0 0-.584.747 2.12 2.12 0 0 0-.207.93c0 .395.075.734.22 1.004.15.27.339.502.583.697.239.188.509.351.81.477.302.125.609.245.923.351.283.1.559.195.829.302.27.1.502.22.716.357.207.139.37.302.496.497.125.194.188.426.188.709a1.645 1.645 0 0 1-.54 1.237c-.17.157-.377.276-.615.357a2.24 2.24 0 0 1-.785.126c-.515 0-.967-.113-1.35-.352-.383-.232-.734-.583-1.042-1.054l-.822.621c.182.264.383.496.602.703a3.505 3.505 0 0 0 1.595.848 4.37 4.37 0 0 0 1.017.113 3.21 3.21 0 0 0 1.199-.22h-.031Zm5.104.094h.973V23.14l3.415 4.665 3.553-4.784v7.534h.973v-9.103h-.935l-3.566 4.77-3.453-4.77h-.96v9.103-.007Zm11.947 0h1.023l.872-2.304h4.156l.886 2.304h1.01l-3.452-9.103h-1.049l-3.44 9.103h-.006Zm3.967-7.797 1.733 4.57h-3.459l1.726-4.57ZM0 30.548h1.023l.873-2.31h4.15l.885 2.31h1.01L4.49 21.445H3.44L0 30.548Zm3.968-7.79L5.7 27.322H2.241l1.72-4.564h.007Zm7.006 7.79h.973v-7.407l3.415 4.664 3.56-4.784v7.534h.973v-9.103h-.936l-3.566 4.77-3.452-4.77h-.96v9.103l-.007-.007Zm12.725 0h3.51c.42 0 .81-.062 1.161-.182.351-.119.653-.288.904-.514.251-.22.446-.49.584-.804.138-.314.207-.672.207-1.061 0-.521-.12-.967-.358-1.343-.238-.377-.584-.653-1.036-.835.377-.189.66-.459.854-.798.195-.339.295-.728.295-1.161 0-.364-.069-.697-.2-.992a2.189 2.189 0 0 0-.572-.76 2.616 2.616 0 0 0-.885-.483 3.639 3.639 0 0 0-1.143-.17H23.7v9.103Zm3.472-4.237c.314 0 .59.038.822.12a1.7 1.7 0 0 1 .597.338c.163.145.282.32.364.528.081.207.12.433.12.677 0 .245-.045.471-.133.678-.088.208-.22.383-.383.534a1.82 1.82 0 0 1-.596.352c-.232.088-.49.125-.772.125h-2.518v-3.352h2.499Zm-.163-3.98c.276 0 .527.037.753.113.226.075.414.182.578.314.157.131.282.295.364.483.088.188.125.39.125.615 0 .226-.037.427-.107.615a1.451 1.451 0 0 1-.326.496 1.45 1.45 0 0 1-.534.327c-.213.081-.458.12-.734.12h-2.448V22.33h2.329Zm6.541 8.217h5.531v-.935h-4.558v-3.164h4.558v-.917h-4.558v-3.151h4.558v-.93h-5.53v9.104-.007Zm9.003 0h.973v-3.295h2.448l1.909 3.295h1.13l-2.072-3.503c.314-.1.59-.245.841-.42.245-.182.459-.39.628-.628.17-.239.301-.496.396-.779.094-.282.138-.577.138-.878a2.791 2.791 0 0 0-.879-2.047 3.018 3.018 0 0 0-.98-.615 3.308 3.308 0 0 0-1.236-.226h-3.296v9.103-.007Zm3.22-8.205c.34 0 .647.05.917.15.27.101.502.24.69.422.189.175.333.389.434.634a2.074 2.074 0 0 1 0 1.55c-.1.245-.245.465-.434.653a2.22 2.22 0 0 1-.696.465 2.312 2.312 0 0 1-.923.175h-2.235V22.35h2.247v-.006Z"></path><path fill="#F5A900" d="M80.76 51.736c14.212 0 25.732-11.52 25.732-25.733 0-14.213-11.52-25.74-25.733-25.74-14.213 0-25.733 11.52-25.733 25.734 0 14.213 11.52 25.733 25.733 25.733"></path><path class="on-hover-animate-symbol" fill="#fff" d="M98.557 36.494c-.452.778-1.237 1.117-1.814 1.268-1.08.276-2.31.119-3.214-.415-3.61-2.14-5.06-5.8-5.468-7.069 1.318-.244 5.254-.721 8.795 1.375 1.525.904 2.624 3.265 1.701 4.84Zm-14.929-5.538a14.088 14.088 0 0 0-2.881 2.204 14.02 14.02 0 0 0-6.171-3.61 13.976 13.976 0 0 0-.006-7.125 14.084 14.084 0 0 0 6.209-3.59 14.024 14.024 0 0 0 6.171 3.61 14.148 14.148 0 0 0-.459 3.552c0 1.199.157 2.404.465 3.572a13.778 13.778 0 0 0-3.328 1.387Zm-2.875 15.701h-.006c-.898 0-1.589-.502-2.01-.922-.79-.785-1.274-1.928-1.274-2.982.013-4.194 2.43-7.302 3.315-8.3.879 1.011 3.29 4.162 3.277 8.275 0 1.77-1.481 3.917-3.308 3.923l.006.006Zm-12.838-9.441c-1.538.885-4.138.678-5.054-.904-.452-.779-.364-1.627-.207-2.204.288-1.074 1.036-2.072 1.946-2.593 2.134-1.224 4.363-1.544 6.102-1.544 1.224 0 2.204.157 2.743.27-.439 1.268-1.97 4.934-5.524 6.974h-.006Zm-3.24-16.876c-1.525-.904-2.624-3.264-1.701-4.84.452-.778 1.237-1.117 1.814-1.268a4.478 4.478 0 0 1 1.086-.132c.76 0 1.52.189 2.129.553 3.61 2.14 5.06 5.8 5.468 7.069-1.319.244-5.255.722-8.796-1.375v-.007ZM80.778 5.343h.006c.898 0 1.589.502 2.01.922.79.791 1.274 1.928 1.274 2.982-.013 4.194-2.43 7.302-3.315 8.294-.879-1.011-3.29-4.175-3.277-8.275 0-1.776 1.481-3.917 3.308-3.923h-.006Zm12.838 9.435c1.539-.885 4.138-.678 5.054.904.452.779.364 1.626.207 2.204-.288 1.073-1.035 2.072-1.946 2.593-3.641 2.09-7.54 1.544-8.845 1.28.44-1.268 1.958-4.928 5.53-6.975v-.006Zm3.71 16.097c-3.873-2.298-8.079-1.752-9.473-1.482a13.124 13.124 0 0 1-.006-6.755c.578.126 1.645.308 2.988.308 1.852 0 4.232-.352 6.548-1.676 1.111-.64 2.022-1.846 2.373-3.146.283-1.048.176-2.078-.301-2.894-1.187-2.046-4.357-2.341-6.29-1.237-3.962 2.273-5.55 6.278-5.97 7.572a13.105 13.105 0 0 1-3.077-1.294 13.084 13.084 0 0 1-2.7-2.096c.967-1.068 3.547-4.345 3.56-8.921 0-1.287-.584-2.675-1.538-3.629-.766-.766-1.695-1.187-2.656-1.187-2.366.007-4.206 2.606-4.212 4.834-.013 4.54 2.63 7.904 3.553 8.94a13.05 13.05 0 0 1-2.668 2.047c-.967.559-2.009.985-3.082 1.28-.402-1.318-1.903-5.292-5.902-7.659-1.105-.652-2.599-.853-3.904-.514-1.055.27-1.896.872-2.373 1.689-1.193 2.04.106 4.947 2.02 6.083 2.343 1.387 4.81 1.739 6.7 1.739 1.236 0 2.222-.15 2.774-.258a13.12 13.12 0 0 1 .007 6.755c-1.382-.3-5.538-.922-9.537 1.369-1.117.64-2.021 1.846-2.373 3.145-.282 1.049-.175 2.078.302 2.894.74 1.275 2.247 1.871 3.748 1.871.91 0 1.814-.22 2.542-.634 3.962-2.273 5.55-6.278 5.97-7.571a13.09 13.09 0 0 1 3.077 1.293 12.903 12.903 0 0 1 2.7 2.103c-.968 1.067-3.548 4.345-3.56 8.921 0 1.287.584 2.675 1.538 3.623.766.766 1.707 1.186 2.649 1.186h.006c2.367 0 4.207-2.599 4.213-4.834.012-4.539-2.63-7.904-3.553-8.94a13.048 13.048 0 0 1 2.668-2.046 13.113 13.113 0 0 1 3.082-1.281c.402 1.318 1.902 5.292 5.901 7.66.747.445 1.677.677 2.6.677.439 0 .885-.05 1.305-.163 1.055-.27 1.896-.873 2.373-1.689 1.193-2.04-.106-4.947-2.021-6.083Z"></path></g><defs><clipPath id="a"><path fill="#fff" d="M0 .264h170v51.473H0z"></path></clipPath></defs></svg>