<?xml version="1.0" encoding="UTF-8"?>
<svg width="234px" height="102px" viewBox="0 0 234 102" version="1.1" xmlns="http://www.w3.org/2000/svg" xmlns:xlink="http://www.w3.org/1999/xlink">
    <title>amber/moje-amber-key@2x</title>
    <g id="amber/moje-amber-key" stroke="none" stroke-width="1" fill="none" fill-rule="evenodd">
        <g id="moje-amber-key" transform="translate(14, 0)">
            <g id="key" transform="translate(153, 58)">
                <path d="M20.1670603,24.9377164 C20.4850603,28.8977164 21.7380603,33.8247164 15.7680603,34.7437164 C12.2590603,35.2847164 8.73406028,32.6397164 6.93506028,28.3507164 C5.13106028,24.0497164 5.79206028,19.9037164 9.64906028,17.7537164 C13.9780558,15.3407164 16.8880603,18.0887164 19.2900603,21.8557164 C19.2500603,21.9577164 19.1570603,22.0787164 19.1190603,22.1347164 L18.7510603,22.6767164 C17.3350603,24.7317164 17.7560603,23.9087164 17.8780603,25.2747164 L20.1670603,24.9377164 Z M23.0870603,24.6447164 C25.8050603,25.7677164 24.7000603,27.9557164 27.8850603,27.7517164 C30.4880603,25.1827164 27.4530603,25.6827164 28.3050603,22.9177164 C29.9650603,24.2307164 29.0980603,24.9997164 31.0680603,24.8677164 C31.8210603,23.2737164 30.8640603,23.0967164 30.5340603,21.0717164 C34.5330603,18.9927164 46.3500603,13.0577164 49.9970603,12.5717164 C51.9150603,14.1877164 50.9670603,15.6477164 52.8710603,15.8957164 L52.8660603,14.7827164 C52.8470603,14.6687164 52.8200603,14.5277164 52.7920603,14.4007164 C52.7920603,14.3987164 51.0670603,9.75571645 54.0890603,10.8147164 C55.9940603,12.3097164 55.0850603,13.4087164 56.7810603,14.6497164 C59.3500603,13.1627164 56.9260603,12.3317164 56.4490603,9.02371645 L58.6730603,7.59171645 L61.3250603,11.9257164 L64.0970603,11.0557164 C63.8980603,8.17271645 62.0460603,3.97571645 60.2550603,2.23971645 C58.4210603,1.44371645 30.1550603,14.8647164 28.5200603,16.8837164 L27.4100603,16.0267164 C26.9850603,15.6267164 26.5970603,15.0997164 26.2560603,14.7727164 C24.7020603,16.8087164 26.6580603,16.3257164 25.2190603,18.1047164 C23.6200603,16.8287164 22.5590603,13.8527164 20.7960603,15.1817164 C20.5710603,16.9167164 21.4260603,17.5167164 21.4830603,19.2117164 C17.8370603,18.0017164 18.0000603,9.97671645 6.26406028,14.7717164 C2.58806028,16.2737164 1.59106028,18.4777164 1.42306028,21.4687164 C0.999060283,29.0347164 7.98806028,42.9857164 17.2980603,39.6997164 C28.6520603,35.6917164 23.8890603,27.9327164 23.0870603,24.6447164 L23.0870603,24.6447164 Z" id="Fill-1" fill="#FEFEFE"></path>
                <path d="M23.0867603,24.6452164 C23.8887603,27.9332164 28.6527603,35.6922164 17.2977603,39.6992164 C7.98776028,42.9852164 0.998760283,29.0352164 1.42376028,21.4692164 C1.59176028,18.4782164 2.58776028,16.2732164 6.26376028,14.7712164 C17.9997603,9.97621645 17.8367603,18.0022164 21.4827603,19.2122164 C21.4267603,17.5162164 20.5707603,16.9162164 20.7967603,15.1812164 C22.5587603,13.8532164 23.6197603,16.8282164 25.2187603,18.1042164 C26.6587603,16.3262164 24.7017603,16.8082164 26.2557603,14.7732164 C26.5967603,15.0992164 26.9847603,15.6272164 27.4097603,16.0272164 L28.5207603,16.8832164 C30.1557603,14.8652164 58.4207603,1.44421645 60.2547603,2.23921645 C62.0457603,3.97521645 63.8987603,8.17321645 64.0967603,11.0562164 L61.3257603,11.9262164 L58.6727603,7.59221645 L56.4487603,9.02421645 C56.9257603,12.3322164 59.3507603,13.1622164 56.7807603,14.6492164 C55.0847603,13.4092164 55.9937603,12.3092164 54.0897603,10.8152164 C51.0677603,9.75621645 52.7917603,14.3982164 52.7927603,14.4012164 C52.8197603,14.5282164 52.8467603,14.6682164 52.8667603,14.7832164 L52.8717603,15.8962164 C50.9667603,15.6482164 51.9157603,14.1872164 49.9967603,12.5712164 C46.3497603,13.0582164 34.5327603,18.9922164 30.5337603,21.0722164 C30.8637603,23.0962164 31.8217603,23.2732164 31.0687603,24.8672164 C29.0977603,25.0002164 29.9647603,24.2302164 28.3057603,22.9182164 C27.4527603,25.6832164 30.4877603,25.1832164 27.8857603,27.7512164 C24.6997603,27.9552164 25.8047603,25.7682164 23.0867603,24.6452164 M33.8417603,21.0592164 L49.4877603,14.1052164 C51.8837603,17.1712164 50.5937603,18.5902164 54.8987603,16.6612164 C57.3147603,15.5792164 55.1727603,16.4912164 56.6257603,16.1462164 C60.8207603,15.1502164 59.0317603,14.1082164 61.7977603,13.3352164 C62.4357603,13.1572164 66.4107603,12.9012164 66.7277603,8.87621645 C66.8717603,7.05021645 64.4567603,2.13921645 63.1407603,0.84321645 C60.1297603,-2.12178355 50.7977603,3.54121645 46.7257603,5.38721645 C40.8797603,8.03621645 35.1427603,10.9132164 29.2877603,13.5402164 C27.1527603,10.7392164 26.9727603,12.9272164 24.6467603,13.2412164 C23.6987603,13.3692164 23.4167603,12.9122164 22.0417603,13.0022164 C20.2257603,13.1202164 20.9947603,13.8012164 19.2517603,13.1192164 C17.3937603,12.3922164 17.5507603,9.51821645 8.56576028,12.2542164 C-1.57223972,15.3422164 -1.81523972,23.4832164 3.19076028,32.4442164 C7.52576028,40.2052164 14.4727603,45.3432164 22.5667603,38.2322164 C23.8437603,37.1102164 25.3487603,35.5532164 26.4417603,34.2212164 C28.3627603,31.8792164 27.8057603,30.2942164 29.8947603,27.3002164 C31.9027603,24.4222164 34.5277603,27.9422164 33.8417603,21.0592164" id="Fill-3" fill="#004B6C"></path>
                <path d="M17.3023603,21.7456164 L16.9493603,22.6506164 C16.6463603,23.5116164 16.8363603,22.3216164 16.6363603,23.5906164 C16.2093603,26.2826164 17.9313603,25.6616164 18.7053603,27.5156164 C18.9683603,28.1446164 18.8743603,29.1206164 18.6963603,29.8546164 C17.7103603,33.9106164 14.0643603,31.8416164 12.0693603,29.1406164 C7.12536028,22.4426164 11.1463603,13.3266164 17.3023603,21.7456164 M15.7363603,33.3696164 C8.86436028,34.4606164 3.36336028,23.6846164 9.27536028,19.4126164 C8.83136028,22.1486164 8.21236028,23.8356164 9.94636028,27.4826164 C11.5473603,30.8506164 13.3083603,31.8306164 15.7363603,33.3696164 M20.1673603,24.9376164 L17.8783603,25.2746164 C17.7563603,23.9086164 17.3353603,24.7326164 18.7513603,22.6766164 L19.1193603,22.1356164 C19.1563603,22.0796164 19.2493603,21.9576164 19.2903603,21.8566164 C16.8873603,18.0896164 13.9773603,15.3406164 9.64936028,17.7536164 C5.79236028,19.9036164 5.13136028,24.0506164 6.93536028,28.3506164 C8.73436028,32.6396164 12.2593603,35.2846164 15.7683603,34.7446164 C21.7383603,33.8246164 20.4853603,28.8976164 20.1673603,24.9376164" id="Fill-8" fill="#004B6C"></path>
                <path d="M15.7367603,33.3694164 C13.3087603,31.8304164 11.5467603,30.8504164 9.94576028,27.4834164 C8.21276028,23.8364164 8.83076028,22.1484164 9.27576028,19.4124164 C3.36276028,23.6844164 8.86376028,34.4604164 15.7367603,33.3694164" id="Fill-10" fill="#B90E49"></path>
            </g>
            <g id="moje-amber" transform="translate(0, 0)">
                <path d="M18.8848,31.5158049 C19.4938,28.5418049 17.6988,24.4908049 19.0228,19.9718049 C22.4118,8.41580495 37.8998,14.6778049 44.3628,19.8168049 C46.6168,21.6088049 49.9698,26.1718049 51.7108,22.2028049 C60.4078,2.36780495 80.1518,-0.256195054 90.1578,13.1628049 C94.0358,18.3628049 95.0248,26.0648049 93.2868,33.6078049 C91.6918,40.5308049 85.4848,49.0898049 82.2458,53.7928049 C80.5608,55.7288049 81.2368,57.2708049 83.0938,57.2392941 C87.7838,51.2648049 96.9908,41.2938049 98.6208,31.8368049 C102.5358,9.11880495 82.9718,-4.67119505 66.0468,1.45680495 C58.8038,4.07980495 51.4808,10.8238049 48.9358,17.7658049 C47.9698,17.2888049 47.3518,16.6938049 46.4768,16.0668049 C40.6778,11.9138049 32.2228,8.48780495 24.9118,10.3498049 C12.3138,13.5578049 16.9008,30.2348049 18.8848,31.5158049" id="Fill-6" fill="#B90E49"></path>
                <path d="M53.321,28.7053049 C53.714,28.5373049 54.107,28.3683049 54.443,28.2563049 C54.724,28.2003049 55.117,28.1443049 55.51,28.1443049 C55.846,28.1443049 56.239,28.2003049 56.632,28.2563049 C57.025,28.3123049 57.362,28.4813049 57.755,28.6493049 C58.091,28.8173049 58.372,29.0983049 58.596,29.4353049 C58.821,29.7713049 58.933,30.1643049 58.933,30.6693049 C58.933,31.1743049 58.821,31.6793049 58.596,32.1283049 C58.316,32.5773049 57.755,32.8023049 56.913,32.8023049 C55.734,32.8023049 54.836,32.5213049 54.219,32.0163049 C53.602,31.5113049 53.265,30.7253049 53.265,29.6033049 L53.265,29.1543049 C53.265,29.0423049 53.265,28.8733049 53.321,28.7053049 L53.321,28.7053049 Z M59.663,44.5873049 L59.663,45.2053049 C59.663,45.3733049 59.663,45.5423049 59.719,45.7103049 C59.831,47.8433049 59.943,49.6953049 59.999,51.2103049 C60.056,52.7813049 60.112,54.1843049 60.168,55.4753049 C60.224,56.7663049 60.224,58.0573049 60.28,59.2353049 L60.28,63.2763049 C60.28,64.5113049 60.168,65.8013049 59.943,67.1483049 C59.663,68.4393049 59.438,69.7303049 59.158,70.9093049 C58.989,71.6383049 58.653,72.6483049 58.26,73.8833049 C57.867,75.0623049 57.362,76.2403049 56.744,77.4193049 C56.127,78.5973049 55.398,79.6073049 54.668,80.4493049 C53.882,81.2913049 53.04,81.6843049 52.142,81.6843049 C51.301,81.6843049 50.515,81.4603049 49.841,80.9543049 C49.224,80.4493049 48.887,79.6643049 48.887,78.7103049 C49.392,78.3733049 49.841,77.9803049 50.234,77.5313049 C50.627,77.0263049 51.02,76.5773049 51.301,76.0723049 C51.637,75.5673049 51.918,75.1743049 52.142,74.7813049 C52.311,74.3883049 52.479,74.1643049 52.591,74.0513049 C52.76,73.4903049 52.984,72.8733049 53.209,72.1993049 C53.377,71.5263049 53.602,70.8523049 53.826,70.1793049 C53.994,69.4493049 54.219,68.7763049 54.387,68.1023049 C54.556,67.3733049 54.668,66.7563049 54.78,66.1383049 C55.005,64.7353049 55.173,63.4443049 55.229,62.1543049 C55.285,60.8633049 55.341,59.5723049 55.341,58.3933049 C55.341,57.3273049 55.341,56.2613049 55.285,55.0823049 C55.229,53.9603049 55.173,52.9503049 55.173,52.1083049 C55.173,51.4903049 55.173,50.6493049 55.117,49.5823049 C55.061,48.5163049 54.949,47.3943049 54.836,46.2153049 C54.724,45.0363049 54.612,43.9143049 54.443,42.7353049 C54.275,41.6133049 54.163,40.6593049 53.994,39.8733049 C53.994,39.5933049 54.163,39.2563049 54.5,38.9753049 C54.668,38.8633049 54.892,38.6953049 55.173,38.5263049 C55.398,38.3583049 55.678,38.3023049 56.015,38.3023049 C56.913,38.3023049 57.586,38.4703049 58.091,38.8633049 C58.596,39.2563049 58.933,39.7053049 59.214,40.2663049 C59.438,40.8273049 59.551,41.4453049 59.607,42.0623049 C59.663,42.7353049 59.663,43.3533049 59.663,43.9703049 L59.663,44.5873049 Z M15.939,59.2353049 C15.041,59.0673049 14.367,58.6743049 13.918,58.1693049 C13.413,57.6643049 12.964,57.0463049 12.459,56.2053049 C12.179,55.7003049 11.842,55.0263049 11.561,54.1843049 C11.281,53.3423049 10.944,52.3883049 10.663,51.2103049 C10.383,49.9193049 10.046,48.5723049 9.765,47.2813049 C9.485,45.9913049 9.26,44.9803049 9.092,44.3073049 C8.699,46.2713049 8.25,48.2353049 7.801,50.0873049 C7.352,51.9963049 6.903,53.7913049 6.454,55.4753049 C6.005,57.1593049 5.556,58.6743049 5.107,60.1333049 C4.658,61.5363049 4.209,62.7153049 3.76,63.6693049 C3.648,63.9503049 3.424,64.0623049 3.031,64.0623049 C2.638,64.0623049 2.077,63.8933049 1.403,63.5573049 C0.898,63.2763049 0.505,62.9953049 0.337,62.6033049 C0.112,62.2103049 0,61.8173049 0,61.3123049 C0,61.0313049 0.393,59.7963049 1.179,57.7203049 C1.347,57.2713049 1.796,55.9803049 2.413,53.8483049 C3.031,51.7153049 3.929,48.6843049 5.107,44.7563049 C5.5,43.4093049 5.949,41.5573049 6.342,39.2003049 C6.735,36.8433049 7.184,33.9803049 7.577,30.5573049 C7.633,30.5013049 7.857,30.1083049 8.138,29.3783049 C8.306,28.8733049 8.643,28.5933049 9.148,28.5933049 C10.551,28.5933049 11.449,28.8173049 11.954,29.3223049 L11.954,31.4553049 C11.954,32.3533049 12.01,33.4193049 12.179,34.5983049 C12.347,35.7763049 12.459,36.8433049 12.515,37.7413049 C12.571,38.6393049 12.628,39.4243049 12.628,40.0423049 C12.74,41.3883049 12.908,42.5113049 13.189,43.4093049 C13.469,44.3633049 13.694,45.3173049 13.862,46.3833049 C14.255,48.9093049 14.985,50.8733049 16.051,52.3883049 C17.847,47.3943049 19.306,42.9043049 20.485,38.9193049 C21.607,34.9913049 22.393,31.5673049 22.898,28.5933049 C23.066,27.9753049 23.627,27.6953049 24.581,27.6953049 C25.985,27.6953049 26.77,28.1443049 26.939,29.0423049 C27.219,30.2203049 27.331,31.7923049 27.331,33.7003049 L27.331,35.0473049 C27.275,35.6643049 27.275,36.4503049 27.219,37.4043049 C27.163,37.7973049 27.163,38.1903049 27.163,38.5263049 L27.163,39.4803049 L27.163,40.3783049 C27.163,40.6593049 27.163,40.9393049 27.219,41.1643049 C27.556,49.0773049 28.286,55.7003049 29.408,61.0313049 C29.408,61.0873049 29.408,61.1433049 29.464,61.2003049 L29.464,61.2563049 C29.464,61.8733049 28.847,62.2103049 27.612,62.2663049 C26.882,62.2663049 26.097,61.9293049 25.255,61.2003049 C24.525,60.5823049 23.964,59.5163049 23.571,58.1133049 C23.178,56.8223049 22.954,54.9703049 22.898,52.5573049 L22.898,50.2563049 L22.898,47.7303049 C22.842,46.9453049 22.842,46.2153049 22.842,45.5423049 C22.786,44.9243049 22.786,44.4193049 22.729,44.1383049 C22.617,44.5313049 22.449,45.1493049 22.168,45.9913049 C21.888,46.8323049 21.607,47.7303049 21.326,48.6843049 C20.99,49.6953049 20.653,50.7053049 20.316,51.7153049 C19.98,52.7813049 19.699,53.6793049 19.418,54.5213049 C18.745,56.3733049 18.352,57.3833049 18.184,57.6643049 C17.622,58.7303049 16.949,59.2353049 16.163,59.2353049 L15.939,59.2353049 Z" id="Fill-9" fill="#004B6C"></path>
                <path d="M68.7554,47.7306049 C68.9234,47.7866049 69.1484,47.7866049 69.4854,47.7866049 C69.7654,47.8426049 70.0464,47.8426049 70.2144,47.8426049 C71.5054,47.8426049 72.4594,47.5066049 73.1894,46.8886049 C73.8624,46.2716049 74.1994,45.4856049 74.1994,44.5876049 C74.1994,44.0826049 74.0304,43.5776049 73.7504,43.1286049 C73.4694,42.6796049 73.0204,42.4556049 72.5154,42.4556049 C72.1224,42.4556049 71.7864,42.5116049 71.4494,42.5676049 C71.0564,42.6236049 70.7754,42.8476049 70.6074,43.1286049 C70.4394,43.2966049 70.2704,43.5216049 70.1024,43.6896049 C69.9344,43.8586049 69.7654,44.1386049 69.5974,44.4756049 C69.4284,44.8126049 69.2604,45.2046049 69.0924,45.7106049 C68.9234,46.2156049 68.8114,46.8886049 68.7554,47.7306049 M63.8724,50.7616049 C63.8724,49.3586049 64.0414,47.9546049 64.4344,46.5516049 C64.7704,45.1486049 65.2754,43.9146049 66.0054,42.7916049 C66.7354,41.6696049 67.5764,40.7716049 68.6434,40.0416049 C69.7094,39.3686049 70.8884,39.0316049 72.2914,39.0316049 C73.2454,39.0316049 74.1434,39.1996049 74.8724,39.4806049 C75.6024,39.7616049 76.1634,40.1546049 76.6684,40.6596049 C77.1734,41.1646049 77.5104,41.6696049 77.7914,42.2866049 C78.0154,42.9046049 78.1274,43.5776049 78.1274,44.2506049 C78.1274,45.0926049 77.9594,45.9346049 77.6784,46.7206049 C77.3424,47.5626049 76.8934,48.2916049 76.2754,48.9096049 C75.6584,49.5266049 74.9284,50.0316049 74.0874,50.4246049 C73.1894,50.8176049 72.1784,51.0416049 71.0564,51.0976049 C70.5514,51.1536049 70.1584,51.0976049 69.7654,51.0416049 C69.3724,50.9856049 68.9794,50.8736049 68.4744,50.7046049 C68.4184,50.8736049 68.4184,51.0416049 68.4184,51.1536049 L68.4184,51.4906049 C68.4744,52.8936049 68.6994,53.9596049 69.0924,54.7456049 C69.4854,55.5316049 69.9344,56.0926049 70.4394,56.4856049 C70.9444,56.8786049 71.3934,57.1586049 71.8424,57.2716049 C72.2914,57.3836049 72.5714,57.4396049 72.7404,57.4396049 C73.9184,57.4396049 74.8724,57.1586049 75.6584,56.6536049 C76.3884,56.1486049 77.2294,55.5316049 78.1834,54.9146049 C78.3524,54.9706049 78.5764,55.0826049 78.8014,55.1386049 C79.0254,55.2506049 79.2504,55.4196049 79.4184,55.6996049 C79.4744,55.9246049 79.4744,56.0926049 79.5304,56.2046049 C79.5874,56.3736049 79.5874,56.5416049 79.5874,56.8226049 C79.5304,57.3276049 79.4184,57.7766049 79.1944,58.1136049 C78.9134,58.5056049 78.6324,58.7866049 78.3524,59.0676049 C77.3984,59.9086049 76.5004,60.4146049 75.6584,60.6946049 C74.8164,60.9196049 73.6944,61.0316049 72.3474,61.0316049 C71.7294,61.0316049 71.0004,60.9196049 70.1584,60.6386049 C69.2604,60.3576049 68.5314,60.0776049 67.9134,59.7966049 C67.0154,59.1236049 66.3424,58.4496049 65.8374,57.7766049 C65.3324,57.1026049 64.9394,56.3736049 64.6584,55.6436049 C64.3774,54.9146049 64.1534,54.1286049 64.0974,53.2866049 C63.9854,52.5006049 63.9294,51.6596049 63.8724,50.7616049" id="Fill-12" fill="#004B6C"></path>
                <path d="M187.6605,55.1123049 C187.7105,54.9623049 187.7605,54.6123049 187.8105,54.1623049 L187.8105,52.5133049 L187.8105,50.4633049 C187.7605,49.7133049 187.7605,49.0633049 187.7605,48.4143049 C187.7105,47.8143049 187.7105,47.2643049 187.7105,46.8143049 C187.6605,46.3643049 187.6605,46.1143049 187.6605,46.0643049 L187.6605,44.4153049 C187.6605,43.6653049 187.6605,42.9653049 187.6105,42.2153049 C187.5605,41.4653049 187.5105,40.7663049 187.4605,40.0163049 L187.4605,39.8163049 C187.4605,39.5163049 187.4105,39.2163049 187.2605,38.9163049 C187.1105,38.6663049 187.0605,38.3663049 187.0605,38.0163049 C187.2105,37.5663049 187.3605,37.2663049 187.6105,37.0163049 C187.8605,36.7663049 188.2605,36.6673049 188.8605,36.6673049 C189.4105,36.6673049 189.8595,36.7663049 190.2095,36.9663049 C190.5595,37.2163049 190.8095,37.4663049 190.9595,37.7663049 C191.1095,38.1163049 191.2595,38.4663049 191.3095,38.8663049 C191.3595,39.2663049 191.3595,39.6663049 191.4095,40.0163049 L191.5595,42.6653049 C191.9095,42.4153049 192.2595,42.0153049 192.6095,41.4653049 C192.9595,40.9653049 193.3595,40.4163049 193.7595,39.8163049 C194.1585,39.2163049 194.5585,38.6163049 195.0085,38.0663049 C195.4585,37.5163049 195.9085,37.0163049 196.3585,36.6673049 C196.6085,36.5173049 196.9585,36.4673049 197.3585,36.4673049 C198.1575,36.4673049 198.8075,36.6173049 199.3075,36.9163049 C199.7575,37.2163049 200.1575,37.7163049 200.4075,38.3663049 C200.3575,38.6663049 200.1575,39.0163049 199.8575,39.3663049 C199.5575,39.7663049 199.2075,40.1663049 198.8575,40.5663049 C198.4575,41.0153049 198.0575,41.4153049 197.6585,41.8653049 C197.2085,42.3153049 196.8585,42.7653049 196.5585,43.2153049 C196.0585,43.7653049 195.5585,44.4153049 195.0585,45.1643049 C194.5585,45.9143049 194.1085,46.7143049 193.7095,47.5143049 C193.3095,48.3143049 192.9595,49.0633049 192.7095,49.7633049 C192.4595,50.5133049 192.3095,51.0633049 192.3095,51.5133049 C192.3095,51.7633049 192.3095,52.1633049 192.3595,52.6133049 L192.3595,53.7623049 C192.3595,54.1623049 192.3095,54.5623049 192.2595,54.9623049 C192.2095,55.4123049 192.0595,55.7623049 191.8595,56.1623049 C191.6595,56.5123049 191.4095,56.7623049 191.0595,57.0123049 C190.7095,57.2113049 190.3095,57.3113049 189.7595,57.3113049 C189.1105,57.3113049 188.6105,57.1123049 188.2605,56.7623049 C187.8605,56.3623049 187.6605,55.8623049 187.6605,55.3123049 L187.6605,55.1123049 Z M175.0645,44.8153049 C175.2145,44.8653049 175.4145,44.8653049 175.7145,44.8653049 C175.9645,44.9143049 176.2145,44.9143049 176.3645,44.9143049 C177.5145,44.9143049 178.3645,44.6153049 179.0135,44.0653049 C179.6135,43.5153049 179.9135,42.8153049 179.9135,42.0153049 C179.9135,41.5653049 179.7635,41.1153049 179.5135,40.7163049 C179.2635,40.3163049 178.8635,40.1163049 178.4145,40.1163049 C178.0645,40.1163049 177.7645,40.1663049 177.4645,40.2163049 C177.1145,40.2663049 176.8645,40.4663049 176.7145,40.7163049 C176.5645,40.8653049 176.4145,41.0653049 176.2645,41.2153049 C176.1145,41.3653049 175.9645,41.6153049 175.8145,41.9153049 C175.6645,42.2153049 175.5145,42.5653049 175.3645,43.0153049 C175.2145,43.4653049 175.1145,44.0653049 175.0645,44.8153049 L175.0645,44.8153049 Z M170.7155,47.5143049 C170.7155,46.2643049 170.8655,45.0143049 171.2155,43.7653049 C171.5155,42.5153049 171.9655,41.4153049 172.6155,40.4163049 C173.2655,39.4163049 174.0155,38.6163049 174.9645,37.9663049 C175.9145,37.3663049 176.9645,37.0663049 178.2145,37.0663049 C179.0635,37.0663049 179.8635,37.2163049 180.5135,37.4663049 C181.1635,37.7163049 181.6635,38.0663049 182.1135,38.5163049 C182.5635,38.9663049 182.8635,39.4163049 183.1125,39.9663049 C183.3125,40.5163049 183.4125,41.1153049 183.4125,41.7153049 C183.4125,42.4653049 183.2625,43.2153049 183.0125,43.9153049 C182.7135,44.6653049 182.3135,45.3143049 181.7635,45.8643049 C181.2135,46.4143049 180.5635,46.8643049 179.8135,47.2143049 C179.0135,47.5643049 178.1145,47.7643049 177.1145,47.8143049 C176.6645,47.8643049 176.3145,47.8143049 175.9645,47.7643049 C175.6145,47.7143049 175.2645,47.6143049 174.8145,47.4643049 C174.7645,47.6143049 174.7645,47.7643049 174.7645,47.8643049 L174.7645,48.1643049 C174.8145,49.4133049 175.0145,50.3633049 175.3645,51.0633049 C175.7145,51.7633049 176.1145,52.2633049 176.5645,52.6133049 C177.0145,52.9633049 177.4145,53.2123049 177.8145,53.3123049 C178.2145,53.4123049 178.4645,53.4623049 178.6145,53.4623049 C179.6635,53.4623049 180.5135,53.2123049 181.2135,52.7633049 C181.8635,52.3133049 182.6135,51.7633049 183.4625,51.2133049 C183.6125,51.2633049 183.8125,51.3633049 184.0125,51.4133049 C184.2125,51.5133049 184.4125,51.6633049 184.5625,51.9133049 C184.6125,52.1133049 184.6125,52.2633049 184.6625,52.3633049 C184.7125,52.5133049 184.7125,52.6633049 184.7125,52.9133049 C184.6625,53.3623049 184.5625,53.7623049 184.3625,54.0623049 C184.1125,54.4123049 183.8625,54.6623049 183.6125,54.9123049 C182.7635,55.6623049 181.9635,56.1123049 181.2135,56.3623049 C180.4635,56.5623049 179.4635,56.6623049 178.2645,56.6623049 C177.7145,56.6623049 177.0645,56.5623049 176.3145,56.3123049 C175.5145,56.0623049 174.8645,55.8123049 174.3155,55.5623049 C173.5155,54.9623049 172.9155,54.3623049 172.4655,53.7623049 C172.0155,53.1623049 171.6655,52.5133049 171.4155,51.8633049 C171.1655,51.2133049 170.9655,50.5133049 170.9155,49.7633049 C170.8155,49.0633049 170.7655,48.3143049 170.7155,47.5143049 L170.7155,47.5143049 Z M157.9205,46.4643049 C157.7705,46.9643049 157.6205,47.4143049 157.4705,47.8143049 C157.3205,48.2643049 157.1705,48.6643049 157.0705,49.1133049 C156.9215,49.5633049 156.8215,50.0133049 156.7715,50.4633049 C156.6715,50.9633049 156.6215,51.5133049 156.5715,52.1133049 C156.9215,52.5133049 157.2705,52.7633049 157.6205,52.8133049 C157.9705,52.8633049 158.3705,52.9133049 158.9205,52.9133049 C159.7705,52.8133049 160.4205,52.5133049 160.9705,51.9633049 C161.4695,51.4133049 161.8695,50.7633049 162.1695,50.0133049 C162.4695,49.2633049 162.6695,48.4143049 162.7695,47.5143049 C162.8695,46.6643049 162.9195,45.8143049 162.9195,45.0643049 L162.9195,44.0153049 C162.8695,43.6153049 162.8195,43.2153049 162.7695,42.8653049 C162.6695,42.5153049 162.5695,42.1653049 162.4195,41.9153049 C162.2695,41.6653049 162.1195,41.5153049 161.9195,41.5153049 C161.7195,41.5153049 161.4195,41.6653049 161.0705,42.0153049 C160.6705,42.3653049 160.2705,42.7653049 159.8705,43.2153049 C159.4705,43.7153049 159.1205,44.2153049 158.7705,44.7653049 C158.4205,45.3143049 158.1705,45.7643049 158.0205,46.1643049 L157.9205,46.4643049 Z M155.3715,40.4663049 L155.3715,41.0153049 L155.3715,42.0153049 C155.3715,42.4153049 155.3715,42.7653049 155.4215,43.1153049 L155.4215,43.7653049 C155.7215,43.1653049 156.0715,42.5653049 156.4715,41.9653049 C156.8215,41.3653049 157.4705,40.5163049 158.3205,39.4163049 C158.3705,39.3663049 158.5205,39.2163049 158.7705,39.0163049 C159.0205,38.8163049 159.3205,38.6163049 159.7205,38.3663049 C160.0705,38.1163049 160.5205,37.9163049 161.0205,37.7663049 C161.4695,37.6163049 161.9695,37.5163049 162.5195,37.5163049 C163.5195,37.5163049 164.3195,37.7663049 164.9695,38.3163049 C165.5685,38.8663049 166.0685,39.5663049 166.4185,40.3663049 C166.7685,41.1653049 166.9685,42.0153049 167.1185,42.9653049 C167.2685,43.9153049 167.3185,44.7153049 167.3185,45.4643049 C167.3185,45.8643049 167.2685,46.4143049 167.2185,47.1643049 C167.1685,47.9143049 167.0185,48.6643049 166.8185,49.5133049 C166.6185,50.3633049 166.3685,51.1633049 166.0185,51.9633049 C165.6685,52.8133049 165.1695,53.4623049 164.6195,54.0123049 C163.8695,54.7123049 162.9695,55.2623049 161.9195,55.6123049 C160.8705,55.9623049 159.9705,56.1623049 159.1205,56.1623049 C158.2705,56.1623049 157.4705,56.1123049 156.6715,55.9623049 C155.8215,55.8123049 155.0215,55.6623049 154.2715,55.4123049 C154.0715,55.3123049 153.8715,55.1123049 153.7215,54.8123049 C153.5215,54.5623049 153.3215,54.2123049 153.1715,53.8623049 C152.9715,53.5123049 152.8225,53.1123049 152.6725,52.7133049 C152.5225,52.3133049 152.4225,51.9133049 152.3225,51.5633049 C152.2225,51.4633049 152.1225,51.1133049 152.0225,50.5633049 C151.9225,50.0133049 151.8225,49.3633049 151.7725,48.6143049 C151.6725,47.8643049 151.6225,47.1143049 151.5725,46.2643049 C151.5225,45.4643049 151.4725,44.7653049 151.4725,44.1153049 C151.4725,41.3153049 151.5225,38.5163049 151.6225,35.7173049 C151.7225,32.9673049 151.9725,29.9183049 152.3725,26.6693049 C152.3725,26.0193049 152.4225,25.4193049 152.4725,24.8193049 C152.5225,24.2203049 152.6725,23.5703049 152.8725,22.9203049 C153.0215,22.4203049 153.4215,22.1203049 154.0215,21.9703049 C154.5715,21.8703049 155.0715,21.8203049 155.4715,21.8203049 C155.7715,21.8203049 156.0715,21.8703049 156.3215,22.0203049 C156.5715,22.1703049 156.7715,22.3703049 156.8215,22.7203049 C156.6715,24.8693049 156.4215,26.8693049 156.1215,28.7683049 C155.8215,30.6683049 155.6215,32.6673049 155.5715,34.8173049 L155.3715,40.4663049 Z M145.7755,42.6153049 C145.7755,43.9653049 145.8755,45.2143049 146.1255,46.3643049 C146.3755,47.5643049 146.5755,48.8143049 146.7255,50.1633049 C146.7755,50.8133049 146.9755,51.5133049 147.3255,52.2133049 C147.6255,52.9133049 147.7755,53.6123049 147.7755,54.3123049 C147.7755,55.0623049 147.5755,55.6623049 147.1255,56.0623049 C146.6755,56.4623049 146.1255,56.6623049 145.4755,56.6623049 C144.7765,56.6623049 144.2265,56.3623049 143.8765,55.6623049 C143.4765,55.0123049 143.1765,54.2623049 143.0265,53.4123049 C142.8265,52.5633049 142.6765,51.7633049 142.6265,50.9133049 C142.5765,50.1133049 142.4765,49.5633049 142.3765,49.2133049 C142.1765,48.6643049 142.0265,48.1143049 141.9765,47.5643049 C141.9265,47.0143049 141.8765,46.5143049 141.8265,45.9643049 C141.7765,45.4143049 141.7265,44.9143049 141.6765,44.3653049 C141.6265,43.8153049 141.4765,43.2653049 141.3265,42.7153049 C141.0275,43.2653049 140.7275,43.8653049 140.3775,44.5153049 C140.0275,45.1643049 139.6775,45.8643049 139.3275,46.5143049 C138.9775,47.2143049 138.6275,47.8643049 138.2775,48.5143049 C137.9275,49.1633049 137.6775,49.7633049 137.4275,50.3133049 C137.1775,50.8633049 136.9785,51.4133049 136.8285,51.9133049 C136.6785,52.4633049 136.5285,52.9633049 136.3785,53.4623049 L135.9285,54.9623049 C135.7785,55.4623049 135.5285,56.0123049 135.2285,56.5623049 C134.8285,56.7623049 134.3785,56.8623049 133.9285,56.8623049 C133.2785,56.8623049 132.8295,56.6123049 132.4795,56.1623049 C132.1295,55.7123049 131.8295,55.1123049 131.6795,54.4123049 C131.4795,53.7123049 131.3295,52.9633049 131.2795,52.2133049 C131.1795,51.4633049 131.0795,50.7633049 130.9795,50.1633049 C130.9295,49.5133049 130.8295,48.8643049 130.7295,48.1143049 C130.5795,47.3643049 130.4295,46.6643049 130.2795,45.9143049 C130.0795,45.2143049 129.8795,44.5653049 129.6795,43.9153049 C129.4295,43.2653049 129.1795,42.7653049 128.9295,42.3653049 C128.4805,42.7153049 128.0805,43.2653049 127.7305,43.9153049 C127.3805,44.5653049 127.0305,45.2643049 126.7805,45.9643049 C126.4805,46.7143049 126.2305,47.4143049 126.0305,48.0643049 C125.8305,48.7643049 125.6305,49.3133049 125.4805,49.7133049 C125.0305,50.4633049 124.7805,51.2633049 124.6315,52.0133049 C124.4815,52.8133049 124.2815,53.5123049 124.1315,54.1623049 C123.9315,54.8123049 123.6315,55.3623049 123.2815,55.7623049 C122.8815,56.2123049 122.2315,56.4123049 121.3315,56.4123049 C121.0815,56.4123049 120.8315,56.3123049 120.5825,56.1623049 C120.3325,55.9623049 120.0825,55.7123049 119.9325,55.4623049 C119.7825,55.2123049 119.6325,54.9123049 119.5325,54.6123049 C119.4325,54.3123049 119.3825,54.0123049 119.3825,53.7623049 C119.4325,53.4123049 119.4825,53.1123049 119.5325,52.7633049 L119.5325,51.7133049 C119.5325,51.6133049 119.5325,51.3633049 119.5825,50.9633049 C119.6325,50.5633049 119.6325,50.1133049 119.6825,49.6633049 C119.7325,49.2133049 119.7325,48.8143049 119.7825,48.4143049 C119.8325,48.0143049 119.8325,47.7643049 119.8325,47.6643049 C119.8325,45.8143049 119.8325,44.4653049 119.7825,43.6153049 C119.7325,42.8153049 119.7325,42.2653049 119.6825,41.9653049 C119.6325,41.6653049 119.6325,41.5153049 119.5825,41.4653049 C119.5325,41.4653049 119.5325,41.3153049 119.5325,41.0653049 C119.5325,40.7163049 119.4825,40.3663049 119.3825,40.0163049 C119.2325,39.6663049 119.1825,39.3163049 119.1825,38.9663049 C119.1825,38.5163049 119.3825,38.1163049 119.7825,37.7663049 C120.1825,37.4163049 120.6315,37.2663049 121.0815,37.2663049 C121.6815,37.2663049 122.1315,37.4163049 122.4815,37.7163049 C122.8315,38.0163049 123.0815,38.3663049 123.2315,38.8163049 C123.3815,39.2663049 123.4315,39.7663049 123.4815,40.2663049 C123.5315,40.8153049 123.5315,41.2653049 123.5315,41.6653049 C123.5315,42.0153049 123.5315,42.4653049 123.4815,42.9153049 C123.4315,43.3653049 123.3815,43.8153049 123.3815,44.2153049 C123.3815,44.4153049 123.4315,44.6653049 123.4815,45.0143049 C123.6815,44.5653049 123.9315,44.1153049 124.1815,43.5653049 C124.4315,43.0153049 124.6815,42.4653049 124.9805,41.9153049 C125.2305,41.3653049 125.5305,40.8653049 125.8305,40.3663049 C126.1305,39.8663049 126.4305,39.4163049 126.7305,39.0663049 C127.1305,38.5663049 127.5805,38.0163049 128.1305,37.4663049 C128.6805,36.9163049 129.2795,36.6673049 129.9295,36.6673049 C130.6795,36.6673049 131.2295,36.8163049 131.6295,37.1663049 C132.0295,37.5163049 132.3295,37.9163049 132.5295,38.4163049 C132.7295,38.9163049 132.8795,39.4663049 132.9785,40.0663049 C133.0285,40.7163049 133.1285,41.2653049 133.2785,41.8153049 C133.5785,42.7653049 133.8785,43.8653049 134.1285,45.0643049 C134.3785,46.2643049 134.5785,47.3643049 134.8285,48.3143049 C134.8785,48.0643049 135.0285,47.7643049 135.1785,47.3643049 C135.3285,47.0143049 135.4785,46.6143049 135.6285,46.1643049 C135.7785,45.7643049 135.9785,45.3643049 136.1285,45.0143049 C136.2785,44.6653049 136.4285,44.4153049 136.5285,44.2153049 C136.8285,43.5653049 137.1775,42.8653049 137.5775,42.1153049 C137.9275,41.3653049 138.3775,40.6663049 138.9275,40.0163049 C139.4275,39.3663049 140.0275,38.8163049 140.7275,38.3663049 C141.3765,37.9163049 142.1765,37.6163049 143.0765,37.5663049 C143.4765,37.7663049 143.8265,37.9163049 144.1765,38.0163049 C144.5265,38.1663049 144.7765,38.3163049 145.0265,38.5663049 C145.2755,38.8163049 145.4255,39.2163049 145.5755,39.7163049 C145.7255,40.2163049 145.7755,40.9153049 145.7755,41.8653049 L145.7755,42.6153049 Z M109.0865,43.8653049 C109.0365,43.2153049 108.9365,42.5153049 108.8365,41.8153049 C108.7365,41.1653049 108.5865,40.4663049 108.4365,39.7163049 C108.2865,39.0663049 108.1365,38.3663049 107.9865,37.7163049 C107.8365,37.0663049 107.6365,36.3673049 107.4865,35.7173049 C106.4865,38.5163049 105.6375,41.2653049 104.8875,44.0153049 C105.4375,43.9153049 106.8365,43.8653049 109.0865,43.8653049 L109.0865,43.8653049 Z M96.9395,58.0613049 C96.9395,56.7623049 97.2895,55.2123049 98.0385,53.4123049 C99.0385,50.9633049 99.5885,49.2133049 99.6885,48.1143049 C99.6885,47.8643049 99.4885,47.5643049 99.0385,47.2143049 C98.5885,46.8643049 98.3385,46.5643049 98.3385,46.3643049 C98.3385,46.1643049 98.3885,46.0143049 98.5385,45.8643049 C98.6885,45.6643049 99.0385,45.5143049 99.5885,45.4143049 C100.1385,45.2643049 100.4885,45.1143049 100.5385,44.8653049 C101.1385,43.2153049 102.0875,40.1163049 103.3875,35.5673049 C103.9375,33.5673049 104.4875,31.8183049 104.9875,30.3183049 C105.4375,28.8683049 105.8865,27.5693049 106.3365,26.5193049 C106.5365,26.0693049 106.9365,25.8193049 107.5865,25.8193049 C108.0365,25.8193049 108.4865,25.9693049 108.8365,26.2693049 C109.7865,27.0693049 110.3855,28.2693049 110.6355,29.8683049 C110.7355,30.5183049 110.8355,31.2183049 110.9355,31.9183049 C111.0355,32.6173049 111.1355,33.3173049 111.1855,33.9673049 C112.0355,37.9163049 112.8855,41.4653049 113.7355,44.6653049 C114.5845,47.9143049 115.4845,50.8133049 116.3845,53.4123049 C116.5845,53.9623049 116.6845,54.4623049 116.6845,54.8123049 C116.6845,55.4623049 116.3845,56.0623049 115.8345,56.5623049 C115.2845,57.0123049 114.9345,57.2613049 114.6845,57.2613049 C113.0355,56.9623049 112.0355,55.6623049 111.5855,53.3123049 C111.1355,50.7633049 110.5855,48.6643049 109.9355,46.9643049 L106.5365,47.2643049 C105.2375,47.4143049 104.2375,47.8143049 103.4875,48.4643049 C103.3375,49.0133049 103.1375,49.7133049 102.8875,50.6133049 C102.6375,51.5133049 102.3375,52.6133049 102.0375,53.9623049 C101.4885,56.4123049 100.9385,58.2613049 100.3885,59.5113049 C100.2385,59.9113049 99.8885,60.1113049 99.3885,60.1113049 L99.0885,60.1113049 C98.9385,60.1113049 98.8385,60.0613049 98.6885,60.0113049 C97.5885,59.6613049 96.9895,59.1613049 96.9395,58.5113049 L96.9395,58.0613049 Z" id="Fill-14" fill="#004B6C"></path>
                <path d="M41.1816,36.0949049 C40.8146,36.3809049 40.9776,36.2529049 40.6286,36.6229049 C38.0996,39.3059049 34.6726,44.8049049 33.7336,48.0919049 C32.1736,53.5489049 36.6706,59.0209049 41.8436,58.6229049 C45.8346,58.3149049 51.4166,54.1309049 48.7316,47.9959049 L43.3986,38.9129049 C42.8476,38.1889049 42.8796,38.2159049 42.4576,37.5659049 L41.1816,36.0949049 Z" id="Fill-16" fill="#F9AB00"></path>
                <path d="M42.4572,37.5655049 C42.8792,38.2165049 42.8472,38.1895049 43.3982,38.9135049 L48.7322,47.9955049 C51.4172,54.1315049 45.8352,58.3145049 41.8432,58.6225049 C36.6702,59.0205049 32.1732,53.5485049 33.7332,48.0915049 C34.6722,44.8055049 38.1002,39.3055049 40.6282,36.6225049 C40.9772,36.2525049 40.8142,36.3815049 41.1812,36.0945049 L42.4572,37.5655049 Z M31.2472,50.6325049 C31.2472,63.4815049 45.0182,67.2895049 50.3102,56.8075049 C53.6782,50.1365049 49.1032,42.0895049 45.4182,36.5615049 C44.0522,34.5115049 42.7622,33.0135049 41.6972,31.2235049 C40.2132,31.5305049 39.7032,32.6315049 37.9522,34.9575049 C34.8112,39.1275049 31.2472,45.0095049 31.2472,50.6325049 L31.2472,50.6325049 Z" id="Fill-18" fill="#004B6C"></path>
            </g>
        </g>
    </g>
</svg>