<?xml version="1.0" encoding="UTF-8"?>
<svg width="189px" height="142px" viewBox="0 0 189 142" version="1.1" xmlns="http://www.w3.org/2000/svg" xmlns:xlink="http://www.w3.org/1999/xlink">
    <title>hand-drop-big@2x</title>
    <g id="Alikace" stroke="none" stroke-width="1" fill="none" fill-rule="evenodd">
        <g id="amber-plasma_prihlaseni_V1" transform="translate(-200, -806)">
            <g id="hand-drop-big" transform="translate(200, 806)">
                <path d="M94.8535898,52.7914329 C103.598795,49.1279204 111.347503,43.0260235 111.380406,56.7469817 C111.403909,65.669522 104.526798,67.5349541 97.0812695,71.5 C91.4501187,74.5010886 82.6920624,80.7809063 79.8294824,85 C88.5276832,85.0712284 97.4858473,88.0732184 102.599948,92.5059973 C108.038379,97.2213153 113.497964,103.826559 120.083308,102.914836 C122.445289,102.58956 138.419801,96.3618263 140.262381,95.1438212 C144.321229,92.4585117 148.720859,83.448123 150.06519,76.9046101 C154.812655,53.7696358 140.502105,41.6679359 129.115241,28.7281155 C127.890771,27.3391623 127.169251,26.5746445 125.712108,25.1334571 C124.010542,23.4500933 123.817823,22.9918575 122.546349,21.268131 C120.454644,18.426119 118.811833,16.4032334 116.894046,12.9035461 C115.627272,10.5933727 113.899853,4.87610894 111.845752,4 C109.749347,5.45305873 109.319255,9.0928284 107.876214,11.7995064 C96.6280134,32.8878523 76.5829026,40.8060726 74,61.4836682 C80.6723027,58.5205681 87.9063103,55.6999246 94.8535898,52.7914329 Z" id="Fill-3" fill="#F9AB00"></path>
                <path d="M6,142 L37.1317022,142 L46.7786505,124.915187 C50.1153914,120.153145 55.0151082,114.825961 64.2225396,115.134424 C80.3456354,115.670295 99.1506815,123.280557 111.329337,118.736915 C117.303179,116.507874 123.76363,113.087759 129.55135,110.313841 L185,85.0941538 C180.046465,81.8586667 176.299359,83.0159669 171.258368,84.9770729 C166.83629,86.6995138 162.52409,88.4467219 158.1648,90.2006846 C149.450704,93.7086101 140.720911,97.2007747 131.973178,100.645657 C116.379297,106.790155 117.029603,106.517717 106.759258,97.610558 C103.75664,95.0055068 100.561172,92.0176909 95.9058804,90.137641 C87.4025732,86.7040169 79.753633,90.5181541 78.9485994,86.7467965 C78.3252029,83.8220242 81.4690945,78.5984125 83.0634646,76.594527 C85.2722615,73.820609 89.3803994,71.7852017 93.2194453,69.6597321 C100.54996,65.6024267 112.365341,60.8336295 109.174359,53.0612554 C105.954224,52.3790337 95.9440018,57.5891361 92.2282897,59.0661574 C68.4629811,68.5226959 78.2467178,64.7558414 60.7691922,75.903299 C58.5334862,77.3285345 55.7416566,79.0307114 53.3758895,80.6045496 C51.9497018,81.552455 51.2836991,82.1828909 49.9629059,83.0047091 C48.5008393,83.9165896 47.8438064,84.4817304 46.3301639,85.6210181 C41.58069,89.203245 38.5264958,92.8620247 34.884784,98.3468171 C31.6534376,103.216934 28.5700917,107.976725 25.2737147,112.927899 L10.7741406,134.689195 C9.2739527,136.954261 6.79606384,139.779965 6,142" id="Fill-1" fill="#FEFEFE"></path>
                <path d="M163.310754,80.9647982 C169.972438,78.3794209 167.557227,78.9361343 172.350276,73.0639207 C174.169859,70.8326131 178.841446,65.4881639 180,63.2679906 C171.623844,61.7559568 168.762496,66.9534337 165.480706,71.0575254 C163.581706,73.4313516 162.166215,75.1571633 160.332617,77.2993967 C159.438008,78.3482449 158.594787,79.4193616 157.681491,80.5550571 L155.72176,82.8286749 C155.66103,82.9110685 155.593292,83.0157306 155.537233,83.0981242 C155.478838,83.1849715 155.408764,83.3052216 155.355041,83.3876152 C155.301317,83.4700088 155.2219,83.619208 155.17752,83.6882405 C155.13314,83.7617266 155.060731,83.8975647 155,84 C157.020462,83.329717 160.489115,82.0604103 163.310754,80.9647982 Z" id="Fill-8" fill="#FEFEFE"></path>
                <path d="M149,89 C151.61078,86.020695 160.822437,70.2760293 162.697986,67.0204178 C164.142118,64.5072299 165.786767,61.9099487 167,59.3823448 C163.37853,58.447708 161.120176,59.2333795 158.944863,61.6648768 L154.116237,68.8584567 C152.682232,71.354826 152.880725,76.1769753 152.135366,79.4421974 C151.254304,83.3128912 149.816248,86.2873909 149,89" id="Fill-10" fill="#FEFEFE"></path>
                <path d="M147.381438,88.3443309 C148.291228,85.8177522 149.894084,83.0472434 150.876115,79.4420014 C151.706891,76.4007078 151.485651,71.9092611 153.083992,69.5840925 L158.465974,62.8838476 C160.890576,60.6191021 163.407736,59.8873118 167.444223,60.7578513 C166.091955,63.1121124 164.25883,65.5312724 162.649202,67.8721061 C160.558717,70.9044481 150.291411,85.5693463 147.381438,88.3443309 M155.21737,85.616342 C155.276066,85.5111612 155.34605,85.3746498 155.388943,85.3030373 C155.431837,85.2314248 155.508593,85.083724 155.560517,84.9986842 C155.61244,84.9158822 155.680166,84.797274 155.736605,84.7099963 C155.790786,84.6249564 155.856255,84.5220134 155.914951,84.4392115 L157.809029,82.154325 C158.691729,81.0107628 159.506702,79.9343374 160.371341,78.8825287 C162.143512,76.7274399 163.511583,74.9953124 165.346966,72.607483 C168.518813,68.4852882 171.284304,63.2598132 179.379853,64.7815789 C178.260112,67.0105182 173.745026,72.381456 171.9864,74.6238226 C167.353921,80.5251405 169.688221,79.9656678 163.249708,82.5660969 C160.522596,83.6671392 157.170145,84.9427369 155.21737,85.616342 M75.9121414,60.1469072 C78.3931812,40.6571164 97.6477656,33.1915128 108.452366,13.3168049 C109.838498,10.7656094 110.253886,7.33268497 112.265357,5.96309582 C114.238449,6.7911154 115.900001,12.1799564 117.116817,14.3551862 C118.958972,17.6538372 120.534737,19.562758 122.546207,22.2415133 C123.765281,23.866222 123.950399,24.2981349 125.58486,25.8847995 C126.984537,27.2431992 127.677603,27.9615621 128.853783,29.2729661 C139.791579,41.4694708 153.537758,52.8737622 148.977521,74.6820077 C147.688464,80.8496347 143.460086,89.3424302 139.561309,91.8734846 C137.793653,93.0215226 122.446876,98.8915101 120.178045,99.1981011 C113.852409,100.057451 108.608137,93.831639 103.384182,89.387188 C98.4740263,85.2090459 91.3424479,83.1054286 82.9850237,83.0382919 C85.7347111,79.06156 94.676839,74.6573909 100.08817,71.828697 C107.237808,68.0914194 111.840939,64.0923086 111.820621,55.6823151 C111.789015,42.7495443 104.343638,48.4986857 95.9433206,51.9517512 C89.2700234,54.6931674 82.3235636,57.3540195 75.9121414,60.1469072 M0,142 L4.67762913,142 C5.4790569,139.79344 7.97364193,136.987125 9.48393821,134.733569 L24.0812113,113.104354 C27.3997996,108.183233 30.5061788,103.452331 33.7570407,98.6117737 C37.4232906,93.1602718 40.5003217,89.5236993 45.2795403,85.965453 C46.8033818,84.8308424 47.4648419,84.2691318 48.9367599,83.3650239 C50.2664528,82.5481938 50.9392006,81.9193465 52.3727404,80.9771945 C54.7544483,79.4129088 57.5650893,77.7210634 59.8158597,76.3044785 C77.41115,65.2246813 67.5614898,68.9686726 91.4869307,59.5717692 C95.2276795,58.101475 105.305351,52.9252336 108.549441,53.6010767 C111.759667,61.3262756 99.8646728,66.0661283 92.4847647,70.0988074 C88.6198511,72.2113763 84.4840323,74.2344296 82.2626099,76.991511 C80.6552393,78.9832338 77.490164,84.1751404 78.117761,87.0821605 C78.9282189,90.8306275 86.6286981,87.0418784 95.1893012,90.4546619 C99.8759605,92.3233007 103.092959,95.2907438 106.118067,97.8822213 C116.455356,106.735317 115.800669,107.003864 131.501881,100.89666 C140.306298,97.4726873 149.094913,94.0017187 157.867726,90.5173228 C162.256389,88.771768 166.597644,87.0351648 171.049519,85.3254162 C176.124476,83.3739755 179.89683,82.2259375 184.883743,85.4417865 L129.061477,110.506163 C123.234758,113.265483 116.733034,116.664839 110.716682,118.88035 C98.455966,123.396414 79.5242103,115.830105 63.292476,115.297487 C54.0230044,114.993134 49.0925304,120.285746 45.7310489,125.021123 L36.0190988,142 L40.2045836,142 C41.6652139,138.862477 43.7647289,135.4855 45.5910812,132.345739 C47.5912643,128.908339 49.3160272,125.974464 52.0183062,124.202055 C59.9061614,119.025813 67.4644155,121.536727 77.1199269,122.883937 C84.6443178,123.935746 96.2909822,126.661497 103.490287,126.260914 C110.107145,125.8939 119.367587,120.724372 125.045308,118.153036 C133.630744,114.261344 180.763727,93.9435336 186.242784,90.4300451 C191.922762,86.7867589 189.188877,76.2843375 174.652558,78.2782982 C175.742951,75.5794019 182.413991,69.2126027 183.249282,65.8848591 C185.208829,58.0656687 177.083932,58.0410519 171.72904,59.7149942 C171.315909,57.322689 171.083382,56.3313034 169.049336,55.4249576 C167.173318,54.5879865 164.685505,54.413431 162.552127,54.8610092 C161.513657,55.0780846 160.612898,55.3913893 159.752774,55.8702979 C154.725226,58.6587098 159.147752,56.3559202 151.616589,57.1526093 C150.952871,56.0224745 149.417742,49.9846452 148.557618,47.9235478 C143.661007,36.1813349 133.402732,28.7604891 126.368228,20.5384784 C122.496542,16.0112254 118.986062,11.1684298 116.547916,5.37229265 C110.712167,-8.49144067 109.326036,7.81159359 101.564603,16.8526723 L86.8251044,32.9520585 C78.6844042,40.5250809 74.5621307,50.4680296 72.8080198,61.8230874 C66.4349758,65.291818 43.7737591,80.1133686 38.9448746,85.4977338 L30.6055107,96.3291251 C25.5034634,104.210976 19.6902902,111.557972 15.2135824,119.245127 C14.1615673,121.053342 12.5474241,123.161435 11.3441537,124.951748 C10.0505815,126.86962 8.81796302,128.704691 7.49052772,130.678511 C5.37972501,133.811558 1.32517775,139.021367 0,142" id="Fill-5" fill="#004B6C"></path>
            </g>
        </g>
    </g>
</svg>